<?xml version="1.0" encoding="UTF-8"?><svg id="Layer_2" xmlns="http://www.w3.org/2000/svg" viewBox="0 0 126.91 42.28"><defs><style>.cls-1{fill:#0f0f4b;}</style></defs><g id="Layer_3"><g id="b"><g id="c"><g><polygon class="cls-1" points="42.31 0 23.08 26.28 3.84 0 0 0 0 42.28 7.69 42.28 7.69 19.11 23.08 40.14 38.47 19.11 38.47 42.28 46.16 42.28 46.16 0 42.31 0 42.31 0"/><polygon class="cls-1" points="80.7 0 88.42 0 73.06 42.28 65.36 42.28 49.96 0 57.63 0 69.22 31 80.7 0 80.7 0"/><polygon class="cls-1" points="99.95 7.69 99.95 19.05 119.97 19.05 117.19 26.9 99.95 26.9 99.95 42.28 92.26 42.28 92.26 0 126.91 0 124.17 7.69 99.95 7.69 99.95 7.69"/></g></g></g></g></svg>