<?xml version="1.0" encoding="UTF-8"?>
<svg xmlns="http://www.w3.org/2000/svg" width="632" height="84" viewBox="0 0 632 84" fill="none">
  <path fill-rule="evenodd" clip-rule="evenodd" d="M352.859 62.8495C352.859 67.1027 353.554 70.7979 355.013 73.8789L355.02 73.8927C356.494 76.9234 358.72 79.2727 361.668 80.9105C364.629 82.5553 368.247 83.3324 372.447 83.3324C373.75 83.3324 375.145 83.1711 376.627 82.8613C378.027 82.6389 379.208 82.3715 380.135 82.0438C381.174 81.7844 381.997 81.131 382.41 80.1022C382.778 79.3444 382.981 78.5451 382.981 77.717C382.981 76.5829 382.729 75.4343 381.925 74.5964C381.312 73.8851 380.482 73.4431 379.49 73.4431C378.584 73.4431 377.555 73.6857 376.455 74.0762C375.679 74.3104 374.618 74.4492 373.23 74.4492C369.158 74.4492 366.594 73.3313 365.117 71.4406C363.537 69.4179 362.636 66.3294 362.636 61.9553V33.6996H376.248C377.468 33.6996 378.66 33.443 379.558 32.6728L379.601 32.6358L379.641 32.5956C380.498 31.7395 380.857 30.6235 380.857 29.4257C380.857 28.2841 380.483 27.2191 379.601 26.4394C378.708 25.5729 377.5 25.2635 376.248 25.2635H362.636V12.7696C362.636 11.3849 362.296 10.0377 361.275 9.11885C360.342 8.20676 359.124 7.82498 357.803 7.82498C356.442 7.82498 355.172 8.18878 354.22 9.11867C353.199 10.0376 352.859 11.3848 352.859 12.7696V25.2635H346.066C344.841 25.2635 343.701 25.5946 342.786 26.3761C341.807 27.1319 341.345 28.2125 341.345 29.4257C341.345 30.6853 341.784 31.8223 342.744 32.6629L342.786 32.6996L342.831 32.733C343.751 33.4229 344.873 33.6996 346.066 33.6996H352.859V62.8495ZM354.356 64C354.344 63.6222 354.338 63.2387 354.338 62.8495V32.2203L354.338 32.2203V62.8495C354.338 63.2387 354.344 63.6222 354.356 64ZM344.584 32C344.261 31.8906 343.973 31.7405 343.718 31.5496C343.122 31.0279 342.824 30.32 342.824 29.4257C342.824 28.6059 343.122 27.9725 343.718 27.5253C344.016 27.2645 344.361 27.0689 344.752 26.9384C344.361 27.0689 344.016 27.2645 343.718 27.5253C343.122 27.9725 342.824 28.6059 342.824 29.4257C342.824 30.32 343.122 31.0279 343.718 31.5496C343.973 31.7405 344.261 31.8906 344.584 32ZM354.338 26.7428L354.338 26.7428V12.7696C354.338 11.5773 354.636 10.7202 355.232 10.1986C355.679 9.75143 356.273 9.47196 357.014 9.36018C356.273 9.47196 355.679 9.75142 355.232 10.1986C354.636 10.7202 354.338 11.5773 354.338 12.7696V26.7428ZM388.332 74.7622C390.196 77.4356 392.663 79.5323 395.703 81.0523L395.717 81.059C398.85 82.5854 402.355 83.3324 406.202 83.3324C409.511 83.3324 412.55 82.7407 415.295 81.5297C417.956 80.3558 420.213 78.6793 422.049 76.5044V78.1642C422.049 79.542 422.422 80.8263 423.377 81.7812C424.313 82.7176 425.545 83.1088 426.882 83.1088C428.209 83.1088 429.458 82.7207 430.343 81.7094C431.182 80.7508 431.492 79.4942 431.492 78.1642V46.1935C431.492 41.3722 430.768 37.3012 429.231 34.0587C427.753 30.7811 425.396 28.301 422.198 26.6596C419.091 25.026 415.222 24.2575 410.673 24.2575C407.476 24.2575 404.182 24.7249 400.794 25.6479C397.472 26.4987 394.201 27.8084 390.982 29.5689C390.035 30.0477 389.251 30.7317 388.782 31.6705C388.355 32.5251 388.194 33.4454 388.299 34.3958L388.31 34.4947L388.334 34.5912C388.519 35.3286 388.805 36.0111 389.209 36.618L389.253 36.6838L389.304 36.7445C389.889 37.4466 390.652 37.9062 391.535 38.1269L391.554 38.1316L391.573 38.1358C392.701 38.3866 393.817 38.0999 394.838 37.5433L394.842 37.5408C397.747 35.943 400.437 34.7998 402.914 34.0914C405.464 33.3835 408.087 33.0289 410.785 33.0289C414.946 33.0289 417.657 34.1195 419.283 35.9865L419.291 35.9956L419.299 36.0045C420.95 37.8382 421.938 41.0055 421.938 45.8581V48.4031H419.952C411.572 48.4031 404.904 48.8877 399.994 49.8837C395.081 50.8063 391.314 52.5022 388.989 55.1708C386.677 57.8254 385.607 61.3767 385.607 65.6442C385.607 68.9812 386.508 72.026 388.315 74.7369L388.324 74.7496L388.332 74.7622ZM400.277 51.3356C400.277 51.3356 400.277 51.3356 400.277 51.3356C400.874 51.2145 401.498 51.101 402.15 50.995C401.498 51.101 400.874 51.2145 400.277 51.3356ZM394.129 36.2446C394.129 36.2446 394.129 36.2446 394.129 36.2446C393.309 36.6917 392.564 36.8407 391.894 36.6917M401.172 27.0782C401.172 27.0782 401.172 27.0782 401.172 27.0782C401.377 27.0223 401.581 26.9681 401.785 26.9157C401.581 26.9681 401.377 27.0223 401.172 27.0782ZM391.67 30.8789C391.67 30.8789 391.67 30.8789 391.67 30.8789C392.061 30.6646 392.453 30.4574 392.845 30.2571C392.453 30.4574 392.061 30.6646 391.67 30.8789ZM390.105 32.3321C390.142 32.2576 390.183 32.1848 390.227 32.1138C390.183 32.1848 390.142 32.2576 390.105 32.3321C389.807 32.9283 389.695 33.5617 389.77 34.2324C389.919 34.8286 390.142 35.3503 390.44 35.7974C390.495 35.8634 390.553 35.9261 390.612 35.9855C390.553 35.9261 390.495 35.8634 390.44 35.7974C390.142 35.3503 389.919 34.8286 389.77 34.2324C389.695 33.5617 389.807 32.9283 390.105 32.3321ZM420.063 56.3921H421.938V58.6017C421.938 61.8208 421.275 64.6339 419.985 67.0776C418.685 69.5408 416.922 71.4675 414.691 72.8885C412.574 74.2103 410.061 74.8963 407.096 74.8963C403.411 74.8963 400.669 73.9282 398.698 72.1478C396.724 70.3651 395.72 68.0567 395.72 65.0852C395.72 62.6824 396.38 61.0139 397.523 59.8713C398.667 58.7269 400.878 57.7801 404.507 57.2721L404.519 57.2704L404.531 57.2685C408.22 56.6898 413.386 56.3921 420.063 56.3921ZM446.358 63.8556C446.358 69.8094 447.75 74.634 450.739 78.1208L450.752 78.1359C453.846 81.6475 458.161 83.3324 463.488 83.3324C464.107 83.3324 464.701 83.296 465.269 83.2202C465.888 83.2161 466.483 83.175 467.05 83.0939L467.082 83.0894L467.114 83.0835C468.428 82.837 469.63 82.3865 470.458 81.5577C471.355 80.6607 471.674 79.4355 471.674 78.1642C471.674 77.5682 471.622 76.9939 471.48 76.4827C471.353 76.0238 471.123 75.5106 470.691 75.11C469.982 74.3188 468.989 74.1449 468.106 74.2258C467.539 74.2293 466.973 74.2715 466.409 74.3522C465.978 74.4137 465.419 74.4492 464.717 74.4492C461.782 74.4492 459.752 73.5344 458.379 71.8694C456.966 70.0808 456.136 67.232 456.136 63.0731V4.94465C456.136 3.55984 455.796 2.21266 454.774 1.29378C453.842 0.381756 452.624 0 451.303 0C449.942 0 448.672 0.363775 447.72 1.29361C446.699 2.21249 446.358 3.55974 446.358 4.94465V63.8556ZM488.869 69.4539C486.141 66.4333 484.508 62.2372 484.102 56.7274H521.088C522.305 56.7274 523.461 56.3985 524.334 55.5463C525.318 54.6635 525.697 53.4284 525.697 52.1181C525.697 47.898 525.16 44.0887 524.061 40.7094C522.966 37.2703 521.348 34.329 519.187 31.9208C517.103 29.4426 514.538 27.5612 511.511 26.2829C508.53 24.9175 505.115 24.2575 501.302 24.2575C496.063 24.2575 491.355 25.512 487.224 28.054L487.213 28.0608C483.173 30.5961 480.015 34.1188 477.74 38.588C475.452 43.0093 474.335 48.1685 474.335 54.0185C474.335 59.9419 475.451 65.1412 477.743 69.5662C480.035 73.9922 483.332 77.4125 487.616 79.7926C491.903 82.174 496.968 83.3324 502.755 83.3324C506.253 83.3324 509.745 82.8268 513.226 81.8211L513.241 81.8169L513.255 81.8124C516.745 80.7267 519.774 79.165 522.316 77.1088C523.173 76.5009 523.882 75.7497 524.245 74.8136C524.63 73.9285 524.762 72.9481 524.394 71.9943C524.147 71.1085 523.626 70.3797 522.885 69.8374C522.113 69.2139 521.167 68.9716 520.194 68.9716C519.128 68.9716 518.128 69.3866 517.221 70.0216L517.21 70.0292L517.2 70.0371C514.864 71.736 512.485 72.9195 510.062 73.6117L510.051 73.615C507.658 74.3186 505.154 74.6727 502.531 74.6727C496.513 74.6727 492.029 72.8804 488.869 69.4539ZM514.92 41.2946C515.802 43.3719 516.369 45.846 516.593 48.7385H484.309C484.63 46.4654 485.198 44.3991 486.004 42.5321L486.009 42.5211C487.319 39.4163 489.262 37.0467 491.831 35.3565L491.842 35.3491L491.853 35.3415C494.394 33.6028 497.554 32.6935 501.414 32.6935C504.842 32.6935 507.595 33.4615 509.759 34.9045L509.776 34.9155C512.034 36.3765 513.751 38.4763 514.915 41.2826L514.92 41.2946ZM582.279 34.4052C580.736 30.9946 578.353 28.4303 575.144 26.7785C572.035 25.0661 568.199 24.2575 563.717 24.2575C558.767 24.2575 554.314 25.4791 550.406 27.9519L550.394 27.9594C548.847 28.9583 547.484 30.1419 546.304 31.5043V29.5375C546.304 28.1339 545.956 26.812 545.011 25.8435C544.128 24.8597 542.893 24.481 541.583 24.481C540.205 24.481 538.921 24.8536 537.966 25.8086C536.994 26.7801 536.638 28.1171 536.638 29.5375V78.1642C536.638 79.542 537.011 80.8263 537.966 81.7812C538.921 82.7362 540.205 83.1088 541.583 83.1088C542.941 83.1088 544.229 82.7552 545.161 81.7919C546.085 80.8377 546.416 79.5354 546.416 78.1642V49.9942C546.416 44.7015 547.924 40.6701 550.801 37.7257C553.761 34.6987 557.681 33.1407 562.71 33.1407C567.157 33.1407 570.09 34.3361 571.869 36.4221L571.876 36.4304L571.884 36.4386C573.694 38.4985 574.757 42.0095 574.757 47.3114V78.1642C574.757 79.542 575.13 80.8263 576.085 81.7812C577.04 82.7362 578.324 83.1088 579.702 83.1088C581.039 83.1088 582.271 82.7176 583.207 81.7812C584.162 80.8263 584.535 79.542 584.535 78.1642V46.7524C584.535 41.9198 583.808 37.7834 582.279 34.4052ZM603.692 73.8789L603.699 73.8927C605.173 76.9234 607.399 79.2727 610.347 80.9105C613.308 82.5553 616.926 83.3324 621.126 83.3324C622.429 83.3324 623.824 83.1711 625.306 82.8613C626.706 82.6389 627.887 82.3715 628.814 82.0438C629.853 81.7844 630.676 81.1311 631.089 80.1023C631.457 79.3444 631.66 78.5451 631.66 77.717C631.66 76.5828 631.408 75.4343 630.604 74.5964C629.991 73.8851 629.161 73.4431 628.169 73.4431C627.263 73.4431 626.234 73.6857 625.134 74.0762C624.358 74.3104 623.297 74.4492 621.909 74.4492C617.837 74.4492 615.273 73.3313 613.796 71.4406C612.216 69.4179 611.315 66.3294 611.315 61.9553V33.6996H624.927C626.147 33.6996 627.339 33.443 628.237 32.6728L628.28 32.6358L628.32 32.5956C629.177 31.7395 629.536 30.6235 629.536 29.4257C629.536 28.2841 629.163 27.2191 628.28 26.4394C627.387 25.5729 626.179 25.2635 624.927 25.2635H611.315V12.7696C611.315 11.3848 610.975 10.0377 609.954 9.11882C609.021 8.20676 607.803 7.82498 606.482 7.82498C605.121 7.82498 603.851 8.18876 602.899 9.11882C601.878 10.0377 601.538 11.3849 601.538 12.7696V25.2635H594.745C593.52 25.2635 592.381 25.5946 591.465 26.376C590.486 27.1318 590.024 28.2124 590.024 29.4257C590.024 30.6853 590.463 31.8223 591.423 32.6629L591.465 32.6996L591.51 32.733C592.43 33.4229 593.552 33.6996 594.745 33.6996H601.538V62.8495C601.538 67.1027 602.233 70.7979 603.692 73.8789Z" fill="#0A261A"></path>
  <path d="M30.9561 82.1683C13.8958 82.1683 0 68.2725 0 51.2123C0 34.152 13.8958 20.2715 30.9561 20.2715C41.5193 20.2715 51.2342 25.5608 56.9439 34.4196L47.0379 40.8171C43.499 35.3444 37.4912 32.0577 30.9561 32.0577C20.3928 32.0577 11.7939 40.649 11.7939 51.2046C11.7939 61.7602 20.4004 70.3668 30.9561 70.3668C37.4912 70.3668 43.5067 67.0801 47.0532 61.5921L56.9591 67.9897C51.2342 76.8637 41.5117 82.153 30.9561 82.153V82.1683Z" fill="#0A261A"></path>
  <path d="M257.119 61.5692C253.565 67.0572 247.549 70.3439 241.014 70.3439C235.006 70.3439 229.633 67.5693 226.124 63.2278L261.904 44.3561C266.459 41.9407 267.934 36.1699 265.221 31.8819C265.221 31.8743 265.213 31.8666 265.206 31.859C265.121 31.7214 265.022 31.5762 264.915 31.4386C264.907 31.4233 264.9 31.408 264.885 31.3927C264.862 31.3698 264.839 31.3392 264.816 31.3163C258.074 23.2219 247.549 19.0332 236.65 20.5237C222.608 22.4652 211.525 34.0527 210.196 48.1625C208.46 66.5756 222.96 82.1148 241.014 82.1148V82.1301C251.562 82.1301 261.292 76.8484 267.017 67.9667L257.119 61.5692ZM221.936 49.3778C222.723 40.7866 229.411 33.6093 237.934 32.2641C243.918 31.3163 249.735 33.166 253.939 37.0336L222.05 53.918C221.836 52.4505 221.791 50.9294 221.936 49.3778Z" fill="#0A261A"></path>
  <path d="M264.83 31.4464C264.83 31.4464 264.784 31.3928 264.761 31.3698H264.777C264.777 31.3698 264.815 31.4158 264.83 31.4464Z" fill="#0A261A"></path>
  <path d="M304.966 82.1683C287.906 82.1683 274.01 68.2725 274.01 51.2123C274.01 34.152 287.906 20.2715 304.966 20.2715C315.53 20.2715 325.244 25.5608 330.954 34.4196L321.048 40.8171C317.509 35.3444 311.501 32.0577 304.966 32.0577C294.403 32.0577 285.804 40.649 285.804 51.2046C285.804 61.7602 294.411 70.3668 304.966 70.3668C311.501 70.3668 317.517 67.0801 321.071 61.5921L330.977 67.9897C325.252 76.8637 315.53 82.153 304.974 82.153L304.966 82.1683Z" fill="#0A261A"></path>
  <path d="M151.532 39.5789H139.745V82.1225H151.532V39.5789Z" fill="#0A261A"></path>
  <path d="M76.3805 39.5253H64.5942V82.0842H76.3805V39.5253Z" fill="#0A261A"></path>
  <path d="M76.3805 15.9988H64.5942V28.3048H76.3805V15.9988Z" fill="#0A261A"></path>
  <path d="M151.532 15.9988H139.746V28.3736H151.532V15.9988Z" fill="#0A261A"></path>
  <path d="M100.373 39.4948V48.3154C100.373 54.6136 103.056 60.3462 107.718 64.0686C112.572 67.9361 119.252 70.0458 127.538 70.298L127.171 82.0842C116.271 81.7479 107.244 78.7822 100.358 73.2942C92.8823 67.3323 88.5867 58.2213 88.5867 48.3383V15.9988H100.373V28.343H127.538V39.4948H100.373Z" fill="#0A261A"></path>
  <path d="M175.524 39.4948V48.3154C175.524 54.6136 178.207 60.3462 182.87 64.0686C187.724 67.9361 194.404 70.0458 202.689 70.298L202.323 82.0842C191.423 81.7479 182.396 78.7822 175.509 73.2942C168.034 67.3323 163.738 58.2213 163.738 48.3383V15.9988H175.524V28.343H202.689V39.4948H175.524Z" fill="#0A261A"></path>
</svg>
