<svg xmlns="http://www.w3.org/2000/svg" id="icon" role="img" viewBox="0 0 120 48" fill="none">
    <path fill-rule="evenodd" clip-rule="evenodd" d="M17.7582 41.5999C17.6543 41.909 17.4118 42.115 16.9615 42.115H14.4329C14.0172 42.115 13.8094 42.012 13.7055 41.5999L11.3154 32.7054C11.073 31.8126 10.9691 30.748 10.8305 29.7177C10.7266 30.7823 10.588 31.8469 10.3456 32.7054L7.88623 41.5999C7.81695 41.909 7.53984 42.115 7.08954 42.115H4.52629C4.11063 42.115 3.9028 42.012 3.79888 41.5999L0.265753 28.7905C0.161837 28.344 0.438943 28.1037 0.819966 28.1037H2.44798C2.89828 28.1037 3.14075 28.241 3.24466 28.6875L5.46153 37.8223C5.704 38.8526 5.77327 39.9515 5.87719 40.9474C6.05038 39.9859 6.18894 38.8526 6.46605 37.8567L8.92538 28.6531C9.0293 28.2754 9.34105 28.1037 9.75671 28.1037H11.7657C12.1814 28.1037 12.5278 28.3097 12.6317 28.6875L15.1257 37.8567C15.4028 38.8526 15.5413 39.9515 15.6799 40.9474C15.8185 39.9859 15.957 38.8526 16.1648 37.8567L18.2085 28.6531C18.2778 28.2754 18.6242 28.1037 19.0398 28.1037H20.5639C20.945 28.1037 21.2221 28.344 21.1182 28.7905L17.7582 41.5999ZM31.3711 42.2524C27.3184 42.2524 24.6859 39.5051 24.6859 35.0063C24.6859 30.5419 27.3184 27.8633 31.3711 27.8633C35.4239 27.8633 37.9871 30.5763 37.9871 35.0063C37.9871 39.5051 35.4239 42.2524 31.3711 42.2524ZM31.3019 29.8207C28.9118 29.8207 27.5609 31.5378 27.5609 35.0407C27.5609 38.6122 28.8772 40.3636 31.3019 40.3636C33.6919 40.3636 35.0428 38.6465 35.0428 35.0407C35.0082 31.5378 33.6919 29.8207 31.3019 29.8207ZM50.9765 30.0611C50.8726 30.4732 50.5609 30.7136 49.972 30.5763C49.4871 30.4732 48.6904 30.2672 48.0323 30.2672C47.0277 30.2672 45.6769 31.4004 45.6769 33.9417V41.5312C45.6769 41.8403 45.3305 42.115 44.9494 42.115H43.6332C43.2521 42.115 42.9058 41.8403 42.9058 41.5312V28.6875C42.9058 28.344 43.2521 28.1037 43.6332 28.1037H44.4299C44.7762 28.1037 45.0534 28.241 45.1573 28.5501L45.6422 30.1298C46.6121 28.7562 47.9284 27.8976 49.5564 27.8976C50.6648 27.8976 51.5308 28.344 51.3576 28.9279L50.9765 30.0611ZM82.7747 41.9777H82.0473C81.5277 41.9777 81.2506 41.806 81.1467 41.3939L80.8696 40.2263C79.8651 41.6343 78.6181 42.2181 76.7822 42.2181C73.1798 42.2181 71.3093 39.7798 71.3093 35.075C71.3093 32.1903 71.7943 30.7823 72.972 29.443C73.8726 28.4128 75.3621 27.8633 76.8862 27.8633C78.5835 27.8633 79.8651 28.5501 80.8003 29.9238V22.0252C80.8003 21.6818 81.1467 21.4414 81.5277 21.4414H82.7747C83.1557 21.4414 83.5021 21.6818 83.5021 22.0252V41.3939C83.5021 41.7373 83.1557 41.9777 82.7747 41.9777ZM77.475 29.7864C76.4359 29.7864 75.6392 30.1642 75.1542 30.9197C74.6693 31.6752 74.2883 32.9115 74.2883 35.0407C74.2883 38.7496 75.2581 40.2949 77.4404 40.2949C79.6919 40.2949 80.835 38.6122 80.835 35.1094C80.8696 31.6409 79.6226 29.7864 77.475 29.7864ZM66.9449 42.115H64.8319C64.4856 42.115 64.2085 41.909 64.0006 41.6343L58.6316 34.869V41.5312C58.6316 41.8403 58.2853 42.115 57.9042 42.115H56.6572C56.2762 42.115 55.9298 41.8403 55.9298 41.5312V22.0939C55.9298 21.7505 56.2762 21.5101 56.6572 21.5101H57.9042C58.2853 21.5101 58.6316 21.7505 58.6316 22.0939V34.5942L64.1392 28.5158C64.3124 28.2754 64.5895 28.0693 65.0398 28.0693H66.9103C67.3952 28.0693 67.5684 28.4814 67.2913 28.7562L61.4027 34.5942L67.2913 41.3595C67.5684 41.7029 67.4299 42.115 66.9449 42.115ZM104.008 28.6875C103.87 28.3784 104.216 28.1037 104.632 28.1037H106.26C106.71 28.1037 107.022 28.3097 107.16 28.6875L110.416 37.1698C110.555 37.5819 110.693 38.1658 110.797 38.6465C110.901 38.2001 111.144 37.3759 111.386 36.6547L113.984 28.6875C114.088 28.3097 114.434 28.138 114.885 28.138H116.478C116.894 28.138 117.205 28.4127 117.101 28.7218L111.698 44.1069C111.144 45.6866 110.07 46.9229 108.234 47.6097L107.472 47.8844C107.16 47.9875 106.71 47.9188 106.502 47.644L105.983 46.8542C105.844 46.6138 106.017 46.1673 106.364 46.0643L106.918 45.8583C108.303 45.3775 109.308 43.8665 109.723 41.9777L104.008 28.6875ZM94.6904 27.8633C98.7431 27.8633 100.821 30.5419 100.787 35.0063V41.4282C100.787 41.7373 100.44 42.012 100.059 42.012H99.3319C98.8123 42.012 98.5352 41.8403 98.4313 41.4282L98.1542 40.2262C97.1497 41.6686 96.1105 42.2181 94.4825 42.2181C90.7069 42.2181 88.2822 39.5394 88.2822 35.0407C88.2822 30.5763 90.6376 27.8633 94.6904 27.8633ZM94.6211 40.2606C97.0111 40.2606 98.1542 38.6122 98.1542 35.0063C98.1542 31.5035 97.0111 29.7864 94.6211 29.7864C92.231 29.7864 91.1919 31.5035 91.1919 35.0063C91.1919 38.6122 92.231 40.2606 94.6211 40.2606ZM118.839 38.5044C119.07 38.6008 119.277 38.7427 119.459 38.9227C119.632 39.0976 119.768 39.3009 119.857 39.5224C119.95 39.7514 119.997 39.9886 119.997 40.242C119.997 40.5005 119.95 40.7374 119.851 40.9668C119.757 41.1986 119.621 41.394 119.439 41.5716C119.256 41.7468 119.048 41.8822 118.818 41.98C118.589 42.0739 118.348 42.1202 118.098 42.1202C117.847 42.1202 117.603 42.0684 117.373 41.9758C117.143 41.8771 116.933 41.7314 116.752 41.5514C116.574 41.3748 116.444 41.1725 116.351 40.951C116.256 40.722 116.208 40.4906 116.208 40.242C116.208 40.0706 116.234 39.906 116.277 39.7387C116.324 39.5789 116.391 39.4195 116.486 39.2638C116.658 38.9793 116.883 38.7578 117.163 38.597C117.447 38.4362 117.758 38.3587 118.098 38.3587C118.358 38.3587 118.605 38.4053 118.839 38.5044ZM117.503 38.7838C117.314 38.8555 117.149 38.97 117.003 39.1144C116.845 39.2638 116.731 39.4401 116.646 39.6355C116.564 39.8289 116.522 40.0294 116.522 40.2369C116.522 40.4443 116.559 40.6449 116.636 40.8314C116.715 41.0182 116.83 41.188 116.976 41.3326C117.127 41.4842 117.3 41.6028 117.493 41.6851C117.686 41.767 117.888 41.8085 118.098 41.8085C118.301 41.8085 118.499 41.767 118.693 41.6902C118.885 41.6128 119.063 41.4996 119.22 41.3491C119.366 41.2102 119.48 41.044 119.563 40.8533C119.643 40.6665 119.684 40.4697 119.684 40.2677C119.684 40.0452 119.647 39.8388 119.57 39.6485C119.496 39.4606 119.381 39.2892 119.236 39.1401C119.079 38.9844 118.912 38.8658 118.719 38.7876C118.527 38.7101 118.322 38.668 118.104 38.668C117.888 38.668 117.686 38.7064 117.503 38.7838ZM118.14 39.1596C118.436 39.1596 118.662 39.2124 118.812 39.3112C118.963 39.4144 119.036 39.5587 119.036 39.762C119.036 39.9012 118.996 40.014 118.916 40.1117C118.833 40.2112 118.719 40.2784 118.578 40.314L119.048 41.2459H118.479L118.078 40.3929H117.827V41.2459H117.314V39.1596H118.14ZM117.827 40.0864H118.078C118.228 40.0864 118.337 40.0603 118.406 40.014C118.474 39.9677 118.51 39.8961 118.51 39.7925C118.51 39.6883 118.474 39.6101 118.401 39.5587C118.322 39.5073 118.207 39.4812 118.051 39.4812H117.827V40.0864Z" fill="#005CB9"/>
    <path fill-rule="evenodd" clip-rule="evenodd" d="M34.9043 22.0595C39.5112 11.3106 50.2491 3.78977 62.7536 3.78977C75.2581 3.78977 85.9961 11.3106 90.603 22.0595C90.8801 22.7807 91.5729 23.2958 92.4042 23.2958C93.4433 23.2958 94.3093 22.4373 94.3093 21.407C94.3093 21.1667 94.2747 20.9263 94.1708 20.6859C88.975 8.59762 76.8515 0.115234 62.7536 0.115234C48.6558 0.115234 36.5323 8.59762 31.3365 20.6859C31.2326 20.8919 31.1979 21.1667 31.1979 21.407C31.1979 22.4373 32.0639 23.2958 33.1031 23.2958C33.9344 23.2958 34.6271 22.7807 34.9043 22.0595Z" fill="#F38B00"/>
</svg>