<svg xmlns="http://www.w3.org/2000/svg" font-family="Roboto Mono" viewBox="0 0 800 300"><text x="400" y="30"  font-size="24" font-weight="bold" text-anchor="middle">Effect of Memoisation on Fibonacci Calculation</text><text x="150"  font-size="18" font-weight="bold" text-anchor="middle" transform="translate(50 60)">Without Memoisation</text><g transform="translate(50 90)"><circle cx="150" r="20" fill="#ccf" stroke="#004" stroke-width="2"/><text x="150" y="5"  font-size="14" text-anchor="middle">fib(5)</text><circle cx="75" cy="50" r="20" fill="#ddd" stroke="#333" stroke-width="1.5"/><text x="75" y="55"  font-size="14" text-anchor="middle">fib(4)</text><circle cx="225" cy="50" r="20" fill="#ddd" stroke="#333" stroke-width="1.5"/><text x="225" y="55"  font-size="14" text-anchor="middle">fib(3)</text><circle cx="40" cy="100" r="20" fill="#fcc" stroke="red" stroke-width="1.5"/><text x="40" y="105"  font-size="14" text-anchor="middle">fib(3)</text><circle cx="110" cy="100" r="20" fill="#fcc" stroke="red" stroke-width="1.5"/><text x="110" y="105"  font-size="14" text-anchor="middle">fib(2)</text><circle cx="190" cy="100" r="20" fill="#fcc" stroke="red" stroke-width="1.5"/><text x="190" y="105"  font-size="14" text-anchor="middle">fib(2)</text><circle cx="260" cy="100" r="20" fill="#cfc" stroke="#040" stroke-width="1.5"/><text x="260" y="105"  font-size="14" text-anchor="middle">fib(1)</text><path stroke="#333" stroke-width="1.5" d="M150 20 75 30"/><path stroke="#333" stroke-width="1.5" d="m150 20 75 10"/><path stroke="#333" stroke-width="1.5" d="M75 70 40 80"/><path stroke="#333" stroke-width="1.5" d="m75 70 35 10"/><path stroke="#333" stroke-width="1.5" d="m225 70-35 10"/><path stroke="#333" stroke-width="1.5" d="m225 70 35 10"/><text x="150" y="150"  font-size="18" font-style="italic" text-anchor="middle">(...and many more nodes)</text><rect width="300" height="30" y="180" fill="#fee" stroke="red" rx="5"/><text x="150" y="200"  font-size="16" text-anchor="middle">Time Complexity: O(2^n)</text></g><text x="150"  font-size="18" font-weight="bold" text-anchor="middle" transform="translate(450 60)">With Memoisation</text><g transform="translate(450 90)"><circle cx="150" r="20" fill="#ccf" stroke="#004" stroke-width="2"/><text x="150" y="5"  font-size="14" text-anchor="middle">fib(5)</text><circle cx="150" cy="50" r="20" fill="#ddd" stroke="#333" stroke-width="1.5"/><text x="150" y="55"  font-size="14" text-anchor="middle">fib(4)</text><circle cx="150" cy="100" r="20" fill="#ddd" stroke="#333" stroke-width="1.5"/><text x="150" y="105"  font-size="14" text-anchor="middle">fib(3)</text><circle cx="150" cy="150" r="20" fill="#ddd" stroke="#333" stroke-width="1.5"/><text x="150" y="155"  font-size="14" text-anchor="middle">fib(2)</text><circle cx="150" cy="200" r="20" fill="#cfc" stroke="#040" stroke-width="1.5"/><text x="150" y="205"  font-size="14" text-anchor="middle">fib(1)</text><rect width="70" height="25" x="200" fill="#ffc" stroke="#880" rx="5"/><text x="235" y="17"  font-size="12" text-anchor="middle">memo[5]=5</text><rect width="70" height="25" x="200" fill="#ffc" stroke="#880" rx="5"/><text x="235" y="67"  font-size="12" text-anchor="middle">memo[4]=3</text><rect width="70" height="25" x="200" fill="#ffc" stroke="#880" rx="5"/><text x="235" y="117"  font-size="12" text-anchor="middle">memo[3]=2</text><rect width="70" height="25" x="200" fill="#ffc" stroke="#880" rx="5"/><text x="235" y="167"  font-size="12" text-anchor="middle">memo[2]=1</text><rect width="70" height="25" x="200" fill="#ffc" stroke="#880" rx="5"/><text x="235" y="217"  font-size="12" text-anchor="middle">memo[1]=1</text><path stroke="#333" stroke-width="1.5" d="M150 20v10"/><path stroke="#333" stroke-width="1.5" d="M150 70v10"/><path stroke="#333" stroke-width="1.5" d="M150 120v10"/><path stroke="#333" stroke-width="1.5" d="M150 170v10"/><rect width="300" height="30" y="180" fill="#efe" stroke="#0a0" rx="5"/><text x="150" y="200"  font-size="16" text-anchor="middle">Time Complexity: O(n)</text></g><g transform="translate(350 270)"></g></svg>