<?xml version="1.0" encoding="UTF-8"?><svg id="Layer_1" xmlns="http://www.w3.org/2000/svg" viewBox="0 0 210 88.09"><defs><style>.cls-1{fill:#610064;}</style></defs><polygon class="cls-1" points="40 34.27 70.5 0 6.25 11.76 40 34.27"/><g><path class="cls-1" d="M191.83,53.79c1.13,0,2.05-.33,3.03-.9v2.08c-1,.57-2.27,.89-3.36,.89-2.84,0-4.59-1.61-4.59-4.42v-8.2h-2.3l4.99-5.58v3.48h4.54v2.1h-4.54v8.05c0,1.84,1.11,2.51,2.25,2.51"/><path class="cls-1" d="M100.43,34.29v12.98c0,2.75-.69,4.95-2.27,6.54h0c-1.37,1.4-3.57,2.17-6.32,2.17s-5.02-.77-6.38-2.16c-1.56-1.57-2.24-3.77-2.24-6.54v-8.28c0-2.39-.13-4.01-1.66-4.59v-.12h4.68v12.98c0,2.14,.42,3.76,1.48,4.82,1,1.01,2.41,1.54,4.18,1.54s3.16-.55,4.15-1.54c1.06-1.06,1.48-2.68,1.48-4.82v-12.98h2.9Z"/><path class="cls-1" d="M104.52,44.36c0-1.43-.12-2.65-1.5-3.12v-.11h4.01l.07,2.24c1.41-2.21,3.43-2.61,4.92-2.61,1.12,0,4.75,.39,4.75,5.46v9.26h-2.71v-9.29c0-2.1-1.13-3.36-3.02-3.36-1.47,0-2.88,.94-3.79,2.54v10.11h-2.71v-11.12"/><path class="cls-1" d="M123.58,41.13v14.35h-2.71v-11.12c0-1.43-.12-2.65-1.5-3.12v-.11h4.21Z"/><path class="cls-1" d="M120.33,36.17c0-.93,.76-1.68,1.69-1.68s1.71,.76,1.71,1.68-.75,1.72-1.71,1.72-1.69-.77-1.69-1.72"/><path class="cls-1" d="M182.37,41.13v14.35h-2.71v-11.12c0-1.43-.12-2.65-1.5-3.12v-.11h4.22Z"/><path class="cls-1" d="M179.11,36.17c0-.93,.76-1.68,1.69-1.68s1.71,.76,1.71,1.68-.75,1.72-1.71,1.72-1.69-.77-1.69-1.72"/><path class="cls-1" d="M139.4,41.13l-6.2,14.41h-.92l-5.12-11.37c-.58-1.29-1.24-2.56-2.21-2.93v-.11h3.77l3.33,7.81c.17,.4,.6,1.4,.83,2.28,.2-.89,.55-1.78,.75-2.28l3.1-7.81h2.67Z"/><path class="cls-1" d="M142.99,48.6c.2,3.05,2.09,4.85,4.59,5.07,2.01,.17,3.69-.3,5.09-1.11l.34,2.02c-1.46,.86-3.26,1.28-5.38,1.28-4.38,0-7.43-3.1-7.43-7.53s2.98-7.55,6.94-7.55,6.38,2.64,6.38,7.24v.59h-10.53Zm.1-1.79h7.76c-.17-2.53-1.55-4.01-3.75-4.01s-3.71,1.54-4.01,4.01"/><path class="cls-1" d="M163.06,43.25c-2.38,.17-3.59,2.32-3.59,5.56v6.67h-2.71v-11.12c0-1.43-.12-2.64-1.5-3.11v-.11h4.1c0,.32,.03,3.26,.03,3.26,1-2.61,2.89-3.58,4.36-3.58,.78,0,1.63,.09,2.45,.83-.06,.2-.6,1.93-.72,2.31-.6-.46-1.52-.76-2.41-.7"/><path class="cls-1" d="M176.42,51.48c0,3.43-3.34,4.38-5.18,4.38-1.69,0-3.19-.36-4.33-1.07v-2.53c1.23,.97,2.75,1.53,4.35,1.53,1.79,0,2.51-1,2.56-1.94,.04-.98-.6-1.7-1.71-2.24-.96-.47-1.93-.95-2.43-1.21-1.26-.66-2.67-1.63-2.67-3.63,0-2.97,2.77-3.98,4.87-3.98,1.61,0,2.92,.3,3.89,.91v2.35c-1.13-.8-2.26-1.19-3.72-1.19s-2.36,.57-2.39,1.52c-.03,.94,.62,1.36,1.36,1.78,.71,.4,1.59,.79,2.71,1.38,1.32,.69,2.7,1.65,2.7,3.93"/><path class="cls-1" d="M210,41.13l-9.91,21.5h-2.71l4.48-9.69-4.3-8.78c-.65-1.3-1.27-2.58-2.39-2.92v-.11h3.97l4.13,8.86,4.04-8.86h2.68Z"/><path class="cls-1" d="M39.23,53.78c1.13,0,2.05-.33,3.03-.89v2.07c-.99,.57-2.27,.89-3.36,.89-2.84,0-4.59-1.61-4.59-4.41v-8.2h-2.3l4.99-5.59v3.49h4.53v2.1h-4.54v8.05c0,1.85,1.11,2.5,2.25,2.5"/><path class="cls-1" d="M43.01,48.31c0-4.3,3.31-7.55,7.71-7.55s7.71,3.18,7.71,7.55c0,3.74-2.67,7.53-7.77,7.53-4.36,0-7.64-3.24-7.64-7.53m2.81,0c0,3.15,2.06,5.43,4.9,5.43s4.9-2.28,4.9-5.43-2.06-5.45-4.9-5.45-4.9,2.29-4.9,5.45"/><path class="cls-1" d="M17.17,55.47h3l-9.05-21.19H7v.12c1.16,.55,.88,1.96,.1,3.88L0,55.47H2.63l2.62-6.51H14.4l2.77,6.51Zm-11.07-8.61l3.61-8.97,3.8,8.97H6.1Z"/><path class="cls-1" d="M61.52,44.36c0-1.43-.12-2.65-1.5-3.12v-.11h4.01l.08,2.24c1.41-2.21,3.43-2.61,4.91-2.61,1.12,0,4.75,.39,4.75,5.46v9.25h-2.71v-9.28c0-2.1-1.13-3.36-3.02-3.36-1.47,0-2.88,.94-3.79,2.54v10.1h-2.72v-11.12Z"/><path class="cls-1" d="M30.9,51.35c.05,3.42-3.21,4.49-5.06,4.5-1.76,.02-3.23-.28-4.38-.95v-2.52c1.26,.93,2.65,1.42,4.33,1.41,1.74-.02,2.5-1.01,2.52-1.99,.02-.99-.64-1.68-1.77-2.19-.97-.44-1.96-.9-2.47-1.14-1.27-.63-2.72-1.56-2.77-3.56-.08-3,2.81-4.08,4.82-4.11,1.61-.02,2.91,.23,3.89,.81v2.35c-1.16-.76-2.19-1.11-3.68-1.1-1.45,.02-2.38,.64-2.39,1.59,0,.93,.65,1.34,1.41,1.74,.72,.38,1.61,.75,2.74,1.31,1.34,.66,2.76,1.59,2.79,3.86"/><path class="cls-1" d="M156.79,66.25H0v21.84H156.79v-21.84ZM19.75,79.81c0,1.75-1.42,2.67-3.58,2.67h-4.49v-9.69h4.35c1.95,0,3.19,.96,3.19,2.48,0,1.19-.67,1.8-1.39,2.17,1.13,.39,1.92,1.04,1.92,2.36m5.11,2.67h-1.7v-9.69h1.7v9.69Zm9.58-3.67l2.62,3.67h-2.01l-2.38-3.37h-2.13v3.37h-1.7v-9.69h4.32c2.23,0,3.6,1.18,3.6,3.08,0,1.6-.95,2.58-2.31,2.95m15.32,3.67h-1.7v-6.95l-3.06,4.57h-.06l-3.03-4.54v6.92h-1.68v-9.69h1.81l2.95,4.59,2.95-4.59h1.81v9.69Zm5.68,0h-1.7v-9.69h1.7v9.69Zm12.42,0h-1.42l-5.34-6.9v6.9h-1.68v-9.69h1.58l5.19,6.7v-6.7h1.67v9.69h0Zm12.52-1.34c-.96,.82-2.33,1.51-4.04,1.51-3.03,0-5.03-2.16-5.03-5s2.08-5.03,5-5.03c1.69,0,2.73,.47,3.72,1.32l-1.08,1.29c-.75-.64-1.48-1.04-2.71-1.04-1.79,0-3.14,1.55-3.14,3.43,0,2.01,1.32,3.47,3.3,3.47,.91,0,1.74-.29,2.34-.73v-1.81h-2.48v-1.48h4.13v4.07h0Zm11.63,1.34h-1.7v-4.08h-4.63v4.08h-1.7v-9.69h1.7v4.03h4.63v-4.03h1.7v9.69Zm13.15,0h-1.8l-.98-2.34h-4.58l-1,2.34h-1.75l4.26-9.76h1.58l4.26,9.76Zm12.58,0h-1.7v-6.95l-3.06,4.57h-.05l-3.03-4.54v6.92h-1.67v-9.69h1.81l2.95,4.59,2.95-4.59h1.81v9.69h0Zm17.55-4.19c0,2.89-1.63,4.35-4.17,4.35s-4.13-1.46-4.13-4.26v-5.58h1.7v5.51c0,1.8,.93,2.77,2.45,2.77s2.44-.91,2.44-2.7v-5.58h1.7v5.5h0Zm8.1-1.33l4.21,5.52h-2.06l-3.31-4.36-1.51,1.55v2.81h-1.7v-9.69h1.7v4.87l4.61-4.87h2.09l-4.03,4.17Zm-44.97,1.68h3.34l-1.67-3.88-1.66,3.88Zm-65.38-1.04c1.22,0,1.99-.63,1.99-1.63,0-1.07-.75-1.62-2.01-1.62h-2.48v3.25h2.49Zm-14.98,2.04c0-.83-.65-1.32-1.99-1.32h-2.7v2.66h2.82c1.16,0,1.87-.46,1.87-1.34m-.54-4.09c0-.79-.61-1.24-1.7-1.24h-2.45v2.57h2.33c1.09,0,1.83-.43,1.83-1.33"/></g></svg>