<svg version="1.1" id="WHITE" xmlns="http://www.w3.org/2000/svg" xmlns:xlink="http://www.w3.org/1999/xlink" x="0px" y="0px" viewBox="0 0 430 96.2" style="enable-background:new 0 0 430 96.2;" xml:space="preserve">
<style type="text/css">
	.st0{fill:#FFFFFF;}
</style>
<path class="l2" d="M52.5,43.7V33.3c0-0.3,0.2-0.5,0.5-0.5l15.7,0c5,0,9.1-3.4,10.4-8c0.1-0.2,0.4-0.2,0.4,0l0,4.6
	c0,8.2-6.5,14.8-14.6,14.8l-11.8,0C52.7,44.2,52.5,44,52.5,43.7z"></path>
<path class="l1" d="M30,17.3l-4.6,0c-0.2,0-0.3,0.3,0,0.4c4.6,1.3,8,5.4,8,10.4l0,15.7c0,0.3,0.2,0.5,0.5,0.5h10.4
	c0.3,0,0.5-0.2,0.5-0.5l0-11.8C44.8,23.8,38.1,17.3,30,17.3z"></path>
<path class="l3" d="M44.2,52l-11.8,0c-8,0-14.6,6.6-14.6,14.8l0,4.6c0,0.2,0.3,0.3,0.4,0.1c1.3-4.6,5.4-8,10.4-8l15.7,0
	c0.3,0,0.5-0.2,0.5-0.5V52.5C44.8,52.2,44.5,52,44.2,52z"></path>
<path class="l4" d="M67.2,78.9l4.6,0c0.2,0,0.3-0.3,0.1-0.4c-4.6-1.3-8-5.4-8-10.4l0-15.7c0-0.3-0.2-0.5-0.5-0.5H52.9
	c-0.3,0-0.5,0.2-0.5,0.5l0,11.8C52.4,72.4,59,78.9,67.2,78.9z"></path>
<path class="l0" d="M96.5,0L67.3,0c-8.2,0-14.8,6.5-14.8,14.6v4.2c0,0.2,0.3,0.3,0.4,0.1c1.4-4.3,5.5-7.5,10.4-7.5l22,0
	c0.3,0,0.5,0.2,0.5,0.5l0,21.6c0,4.9-3.3,9.1-7.9,10.4c-0.2,0.1-0.2,0.4,0.1,0.4l4.5,0c8.2,0,14.8-6.5,14.8-12.1l0-31.3
	C97.3,0.3,96.9,0,96.5,0z M14.8,44.3l4.5,0c0.2,0,0.3-0.3,0.1-0.4c-4.6-1.3-7.9-5.5-7.9-10.4l0-21.6c0-0.3,0.2-0.5,0.5-0.5l22,0
	c4.9,0,9,3.1,10.4,7.5c0.1,0.2,0.4,0.2,0.4-0.1v-4.2c0-8.1-6.6-14.6-14.8-14.6l-29.2,0C0.3,0.1,0,0.4,0,0.8l0,31.3
	C0,37.7,6.6,44.3,14.8,44.3z M82.7,51.3h-4.2c-0.2,0-0.3,0.3-0.1,0.4c4.3,1.4,7.5,5.5,7.5,10.4l0,22c0,0.3-0.2,0.5-0.5,0.5l-21.6,0
	c-4.9,0-9.1-3.3-10.4-7.9c-0.1-0.2-0.4-0.2-0.4,0.1l0,4.5c0,8.2,6.5,14.8,12.1,14.8l31.3,0c0.4,0,0.8-0.3,0.8-0.8l0-29.2
	C97.2,57.9,90.7,51.3,82.7,51.3z M44.3,77.4c-1.4,4.3-5.5,7.5-10.4,7.5l-22,0c-0.3,0-0.5-0.2-0.5-0.5l0-21.6c0-4.9,3.3-9.1,7.9-10.4
	c0.2-0.1,0.2-0.4-0.1-0.4l-4.5,0C6.6,52,0,58.6,0,64.1l0,31.3c0,0.4,0.3,0.8,0.8,0.8l29.2,0c8.2,0,14.8-6.5,14.8-14.6v-4.2
	C44.8,77.2,44.4,77.2,44.3,77.4z M165.9,13.2c0-0.6-0.5-1.2-1.2-1.2h-42.6c-0.7,0-1.2,0.5-1.2,1.2v69.2c0,0.7,0.5,1.2,1.2,1.2H133
	c0.6,0,1.2-0.5,1.2-1.2V57.3c0-0.7,0.5-1.2,1.2-1.2h20.1c0.6,0,1.2-0.5,1.2-1.2v-8.9c0-0.7-0.5-1.2-1.2-1.2h-20.1
	c-0.6,0-1.2-0.5-1.2-1.2V24.3c0-0.6,0.5-1.2,1.2-1.2h29.4c0.6,0,1.2-0.5,1.2-1.2L165.9,13.2L165.9,13.2z M220.1,41.8
	c2.5,4.2,3.7,9,3.7,14.4s-1.2,10.2-3.7,14.5c-2.5,4.3-5.9,7.6-10.4,10c-4.4,2.4-9.4,3.6-15,3.6c-5.5,0-10.5-1.2-14.9-3.6
	s-7.9-5.7-10.4-10s-3.7-9.1-3.7-14.5c0-5.4,1.2-10.2,3.7-14.4c2.5-4.2,5.9-7.5,10.4-9.9c4.4-2.4,9.4-3.6,14.9-3.6
	c5.6,0,10.6,1.2,15,3.6C214.1,34.3,217.6,37.6,220.1,41.8z M210.9,56.2c0-5.1-1.5-9.2-4.6-12.4s-6.9-4.7-11.7-4.7
	c-4.7,0-8.6,1.6-11.6,4.7c-3,3.1-4.6,7.3-4.6,12.4s1.5,9.2,4.6,12.4c3,3.1,6.9,4.7,11.6,4.7c4.7,0,8.6-1.6,11.7-4.7
	C209.4,65.5,210.9,61.4,210.9,56.2z M317.2,29.2c-9-0.4-13.3,1.3-16.5,5.1c-0.6,0.7-1.9,0.3-1.8-0.7l0.1-3.4c0-0.6-0.5-1.1-1-1.1
	h-10c-0.6,0-1,0.5-1,1l-0.2,52.3c0,0.6,0.5,1.1,1,1.1h10.7c0.6,0,1-0.5,1-1.1V57.1c0-5.5,1.4-9.6,4.2-12.5c2.8-2.9,6.6-4.9,11.6-4.9
	c0.6,0,1.1,0,2,0c0.6,0,1.1-0.5,1.1-1v-8.3C318.2,29.7,317.8,29.3,317.2,29.2z M352.2,72.7c-0.2-0.6-0.9-0.8-1.5-0.5
	c-1.7,1-3.8,1.6-6.1,1.6c-2.5,0-4.3-0.7-5.6-2.1c-1.3-1.4-1.9-3.4-1.9-6.1V40.6c0-0.6,0.5-1,1-1h12.5c0.6,0,1-0.5,1-1v-8.1
	c0-0.6-0.5-1-1-1h-12.5c-0.6,0-1-0.5-1-1V17.9c0-0.6-0.5-1-1-1h-10.7c-0.6,0-1,0.5-1,1v11.4v10.2v26.3c0,6,1.6,10.6,4.9,13.7
	c3.3,3.1,7.9,4.7,13.9,4.7c2.4,0,4.6-0.3,6.8-0.9c1.9-0.5,3.5-1.3,4.8-2.3c0.4-0.3,0.5-0.8,0.3-1.2L352.2,72.7z M393.8,28.3
	c-3.8,0-7.3,0.6-10.4,1.8c-2.5,1-4.8,2.3-6.6,4c-0.5,0.4-1.2,0.1-1.2-0.5V12.8c0-0.6-0.5-1.1-1.1-1.1h-10.6c-0.6,0-1.1,0.5-1.1,1.1
	v70.1c0,0.4,0.3,0.7,0.7,0.7h11.4c0.4,0,0.7-0.3,0.7-0.7V55.9c0-5.3,1.4-9.4,4.1-12.2s6.4-4.2,11.1-4.2c4.2,0,7.4,1.2,9.6,3.6
	s3.4,6,3.4,10.8v28.9c0,0.4,0.3,0.7,0.7,0.7h11.4c0.4,0,0.7-0.3,0.7-0.7V52.3c0-7.9-2.1-13.9-6.2-17.9
	C406.2,30.4,400.7,28.3,393.8,28.3z M277.2,29.1h-10.1c-0.6,0-1,0.5-1,1v30.4c0,4.4-1,7.8-3,10.1c-2,2.2-4.9,3.4-8.7,3.4
	c-3.9,0-6.9-1.2-8.9-3.4c-2-2.3-3.1-5.6-3.1-10V30.2c0-0.6-0.5-1-1-1h-10.2c-0.6,0-1,0.5-1,1v30.8c0,7.3,2.1,13.1,6.4,17.3l0,0
	c4.2,4.2,10.2,6.3,17.8,6.3c7.5,0,13.5-2.1,17.7-6.3c4.2-4.2,6.3-10,6.3-17.3V30.2C278.3,29.6,277.8,29.1,277.2,29.1z M430,79.3
	c0,0.8-0.2,1.5-0.6,2.2c-0.4,0.7-1,1.2-1.6,1.6c-0.7,0.4-1.5,0.6-2.2,0.6s-1.5-0.2-2.2-0.6c-0.7-0.4-1.3-0.9-1.6-1.6
	c-0.4-0.7-0.6-1.4-0.6-2.2s0.2-1.5,0.6-2.2s1-1.2,1.7-1.6c0.7-0.4,1.4-0.6,2.2-0.6s1.5,0.2,2.2,0.6s1.3,0.9,1.7,1.6
	S430,78.5,430,79.3z M429.2,79.3c0-0.6-0.2-1.2-0.5-1.8s-0.8-1-1.3-1.3c-0.6-0.3-1.2-0.5-1.8-0.5s-1.2,0.2-1.8,0.5
	c-0.6,0.3-1,0.7-1.3,1.3s-0.5,1.2-0.5,1.8s0.2,1.2,0.5,1.8s0.8,1,1.3,1.3c0.6,0.3,1.2,0.5,1.8,0.5s1.2-0.2,1.8-0.5
	c0.6-0.3,1-0.8,1.3-1.3C429,80.5,429.2,79.9,429.2,79.3z M427.1,80.7l0.6,0.9h-1.2l-0.4-0.8c-0.3-0.5-0.5-0.8-0.7-1
	c-0.2-0.1-0.4-0.2-0.7-0.2h-0.2v1.9h-1V77h1c0.9,0,1.4,0,1.5,0c0.3,0,0.6,0.1,0.7,0.2c0.2,0.1,0.3,0.2,0.4,0.4
	c0.1,0.2,0.2,0.4,0.2,0.7c0,0.3-0.1,0.6-0.3,0.9c-0.2,0.2-0.5,0.4-0.9,0.4c0.1,0.1,0.3,0.1,0.3,0.2c0.1,0.1,0.2,0.2,0.3,0.4
	C426.8,80.2,426.9,80.4,427.1,80.7z M426.2,78.7c0.1-0.1,0.1-0.2,0.1-0.4s0-0.2-0.1-0.3c-0.1-0.1-0.2-0.2-0.3-0.2s-0.5-0.1-1-0.1
	h-0.4V79h0.4c0.6,0,0.9,0,1-0.1C426.1,78.9,426.2,78.8,426.2,78.7z"></path>
</svg>