<svg width="120px"
          focusable="false" title="Migra Code Barcelona" version="1.2" xmlns="http://www.w3.org/2000/svg" viewBox="0 0 503 211" ><style>.a{fill:#15d4be}</style><path class="a" d="m151.9 164h-11q-1.5 0-1.5-1.5v-23.7q0-1.5 1.5-1.5h10.5q3.1 0 4.7 1.6 1.6 1.7 1.6 4.7v1.1q0 2.8-1.8 4.2 3.3 1.7 3.3 6.5v1.3q0 3.6-1.9 5.4-1.8 1.9-5.4 1.9zm-9.5-13v10.1h9.5q2.3 0 3.3-1.1 1.1-1 1.1-3.3v-1.3q0-2.4-1-3.4-1-1-3.4-1zm0-10.7v7.8h9.5q1.6 0 2.3-0.9 0.6-0.9 0.6-2.5v-1.1q0-1.8-0.8-2.6-0.8-0.7-2.6-0.7zm22.8 23.6q-1.4-0.6-0.9-2l9.7-23.4q0.5-1.2 1.6-1.2h0.1q1.2 0.1 1.6 1.2l9.7 23.4q0.6 1.4-0.8 2-1.3 0.5-1.9-0.8l-2.3-5.6h-12.7l-2.2 5.6q-0.6 1.3-1.9 0.8zm10.4-21.9l-5.1 12.5h10.3zm35.5 22.1q-0.5 0.4-1.1 0.2-0.5-0.1-0.9-0.7l-6.3-10.3h-6.2v9.3q0 1.4-1.4 1.4-1.5 0-1.5-1.4v-23.8q0-1.4 1.5-1.4h9.3q3.6 0 5.5 1.9 1.9 1.8 1.9 5.4v1.2q0 3.1-1.5 5-1.4 1.8-4.2 2.2l5.5 9q0.7 1.2-0.6 2zm-14.5-23.8v10h7.9q2.4 0 3.4-1 1-1 1-3.4v-1.2q0-2.3-1-3.4-1-1-3.4-1zm35.5 23.7h-4.8q-4.5 0-6.7-2.1-2.1-2.1-2.1-6.6v-9.2q0-4.5 2.1-6.6 2.1-2.2 6.6-2.1h4.9q3.7 0 5.6 1.5 1.9 1.6 2.2 4.9 0.1 0.7-0.3 1.1-0.4 0.4-1.1 0.4-1.3 0-1.5-1.5-0.2-2-1.3-2.7-1.2-0.8-3.6-0.8h-4.9q-2.2 0-3.4 0.5-1.3 0.6-1.8 1.8-0.6 1.3-0.6 3.5v9.2q0 2.2 0.6 3.5 0.5 1.2 1.8 1.8 1.3 0.5 3.5 0.5h4.8q2.4 0 3.6-0.7 1.1-0.8 1.3-2.8 0.2-1.5 1.5-1.5 0.7 0 1.1 0.4 0.4 0.4 0.3 1.1-0.3 3.4-2.2 4.9-1.9 1.5-5.6 1.5zm31.7 0h-14.5q-1.5 0-1.5-1.4v-23.8q0-1.4 1.5-1.4h14.5q1.5 0 1.5 1.4 0 1.5-1.5 1.5h-13.1v8.8h8.4q1.5 0 1.5 1.5 0 1.4-1.5 1.4h-8.4v9.1h13.1q1.5 0 1.5 1.5 0 1.4-1.5 1.4zm23 0h-12.9q-1.5 0-1.5-1.4v-23.8q0-1.4 1.5-1.4 1.4 0 1.4 1.4v22.3h11.5q1.5 0 1.5 1.5 0 1.4-1.5 1.4zm19.7 0h-4.8q-4.5 0-6.7-2.1-2.1-2.1-2.1-6.6v-9.2q0-4.6 2.1-6.7 2.2-2.1 6.7-2h4.8q4.5 0 6.6 2.1 2.1 2.1 2.1 6.6v9.2q0 4.5-2.1 6.6-2.1 2.1-6.6 2.1zm-4.8-2.9h4.8q2.2 0 3.4-0.5 1.3-0.6 1.8-1.8 0.6-1.3 0.6-3.5v-9.2q0-2.2-0.6-3.4-0.5-1.3-1.8-1.8-1.2-0.6-3.4-0.6h-4.8q-2.2 0-3.5 0.5-1.2 0.5-1.8 1.8-0.5 1.3-0.5 3.5v9.2q0 2.2 0.5 3.5 0.5 1.2 1.8 1.8 1.3 0.5 3.5 0.5zm23.3 2.9q-1.5 0-1.5-1.4v-23.8q0-1.4 1.5-1.4 0.7 0 1.4 0.8l16.4 21.1h-0.7v-20.5q0-1.4 1.5-1.4 1.4 0 1.4 1.4v23.8q0 1.4-1.4 1.4-0.8 0-1.5-0.8l-16.4-21.1h0.7v20.5q0 1.4-1.4 1.4zm27.6-0.1q-1.4-0.6-0.9-1.9l9.7-23.5q0.5-1.1 1.6-1.1h0.1q1.2 0 1.6 1.1l9.8 23.5q0.5 1.3-0.8 1.9-1.4 0.5-2-0.8l-2.3-5.6h-12.7l-2.2 5.6q-0.6 1.4-1.9 0.8zm10.4-21.9l-5.1 12.6h10.3z"/><path  d="m82.9 103q-1.8 0-1.8-1.8v-40.8q0-1.9 1.8-1.9 1.3 0 2.1 1.2l17.2 26.3-0.9 0.1 17.2-26.4q0.7-1.2 2.2-1.2 1.6 0 1.6 1.9v40.8q0 1.8-1.8 1.8-1.8 0-1.8-1.8v-37.2l1.1 0.3-16 24.3q-0.7 1.2-2.1 1.2-1.3 0-2-1.2l-16-24.3 1 0.4v36.5q0 1.8-1.8 1.8zm57.3-38.9h-1.6q-2.4 0-2.4-2.4v-1.6q0-2.4 2.4-2.4h1.6q2.3 0 2.3 2.4v1.6q0 2.4-2.3 2.4zm-0.8 38.9q-1.8 0-1.8-1.8v-29q0-1.8 1.8-1.8 1.8 0 1.8 1.8v29q0 1.8-1.8 1.8zm37.8 13.8h-12.8q-4.1 0-6.2-1.7-2.2-1.6-2.6-5.2-0.1-0.9 0.4-1.4 0.5-0.6 1.4-0.6 0.8 0 1.3 0.5 0.4 0.4 0.6 1.3 0.2 2 1.4 2.8 1.2 0.7 3.7 0.7h12.8q3 0 4.1-1.1 1.1-1.1 1.1-4.2v-9.8q-1.6 2.4-4.5 3.7-2.9 1.2-7.3 1.2h-2.6q-6.5 0-9.5-3-3-3-3-9.4v-7.8q0-6.5 3-9.4 3-3 9.5-3h5.6q3.4 0 5.5 0.9 2.1 0.9 3.3 2.8v-1.9q0-1.8 1.8-1.8 1.8 0 1.8 1.8v35.7q0 4.6-2.1 6.8-2.1 2.1-6.7 2.1zm-9.2-17.4h2.6q5.4 0 8.6-1.7 3.2-1.7 3.2-5.2v-11.5q0-3.9-2.2-5.4-2.1-1.6-6.6-1.6h-5.6q-5 0-6.9 2-2 1.8-2 6.8v7.8q0 4.9 2 6.8 1.9 2 6.9 2zm34.5 3.6q-1.8 0-1.8-1.8v-29q0-1.8 1.8-1.8 1.8 0 1.8 1.8v5.3q1.8-3.4 5.2-5.3 3.4-1.8 8-1.8 1.9 0 1.9 1.8 0 1.8-1.9 1.8-6.1 0-9.5 2.8-3.4 2.8-3.7 7.9v16.5q0 1.8-1.8 1.8zm38 0h-3.8q-5.4 0-7.9-2.5-2.5-2.5-2.5-7.9 0-5.4 2.5-7.9 2.5-2.5 7.9-2.5h15.7q-0.1-4.6-2.1-6.4-2-1.8-6.7-1.8h-4q-4.4 0-6.5 1-2 0.9-2.5 3.1-0.2 0.9-0.6 1.3-0.4 0.4-1.3 0.4-0.9 0-1.4-0.5-0.5-0.5-0.3-1.4 0.4-3.9 3.5-5.7 3.2-1.8 9.1-1.8h4q6.4 0 9.4 3 3 3 3 9.4v18.4q0 1.8-1.8 1.8-1.8 0-1.8-1.8v-3.4q-3.4 5.2-11.9 5.2zm-3.8-3.6h3.8q3.4 0 5.9-0.7 2.5-0.8 4.1-2.5 1.5-1.6 1.9-4.4v-6h-15.7q-3.9 0-5.4 1.5-1.4 1.5-1.4 5.3 0 3.8 1.4 5.3 1.5 1.5 5.4 1.5zm55.6 3.6h-8.2q-7.5 0-11-3.5-3.4-3.4-3.4-10.9v-15.7q0-7.5 3.4-11 3.4-3.4 10.9-3.4h8.3q6.4 0 9.5 2.7 3.1 2.6 3.4 8.4 0.1 1-0.4 1.5-0.4 0.4-1.3 0.4-1.7 0-1.9-1.8-0.3-4.3-2.4-5.9-2.1-1.6-6.9-1.6h-8.3q-4 0-6.3 1-2.4 1-3.4 3.4-1 2.3-1 6.3v15.7q0 4 1 6.4 1.1 2.3 3.4 3.3 2.4 1.1 6.4 1.1h8.2q4.8 0 6.9-1.6 2.1-1.7 2.4-6 0.2-1.8 1.9-1.8 0.9 0 1.3 0.5 0.5 0.5 0.4 1.4-0.3 5.8-3.4 8.5-3.1 2.6-9.5 2.6zm41 0h-5.7q-6.4 0-9.4-3-3-3-3-9.4v-7.8q0-6.5 3-9.5 3-3 9.4-2.9h5.7q6.4 0 9.4 3 3 3 3 9.4v7.7q0 6.5-3 9.5-3 3-9.4 3zm-14.5-20.2v7.8q0 4.9 1.9 6.8 2 2 6.9 2h5.7q4.9 0 6.9-2 1.9-1.9 1.9-6.9v-7.7q0-4.9-1.9-6.8-2-2-6.9-2h-5.7q-3.3 0-5.2 0.8-1.9 0.8-2.8 2.8-0.8 1.9-0.8 5.2zm55.4 20.2h-2.7q-6.4 0-9.4-3-3-3-3-9.5v-7.7q0-6.4 3-9.4 3-3 9.4-3h14.5v-13.5q0-1.8 1.8-1.8 1.8 0 1.8 1.8v44.3q0 1.8-1.8 1.8-1.8 0-1.8-1.8v-3q-1.5 2.4-4.3 3.6-2.9 1.2-7.5 1.2zm-2.7-3.6h2.7q5.4 0 8.6-1.7 3.2-1.7 3.2-5.2v-18.5h-14.5q-4.9 0-6.9 2-1.9 1.9-1.9 6.8v7.7q0 5 1.9 6.9 2 2 6.9 2zm60.6-11.3h-25.2v2.5q0 4.9 2 6.8 1.9 2 6.9 2h5.6q4.4 0 6.3-1.1 2-1.2 2.4-3.9 0.2-0.9 0.6-1.3 0.4-0.5 1.3-0.5 0.9 0 1.4 0.5 0.5 0.5 0.4 1.4-0.5 4.4-3.5 6.4-3.1 2.1-8.9 2.1h-5.6q-6.5 0-9.5-3-3-3-3-9.4v-7.8q0-6.5 3-9.5 3-3 9.5-2.9h5.6q6.5 0 9.5 3 3 3 3 9.4v3.5q0 1.8-1.8 1.8zm-10.7-14.1h-5.6q-5 0-6.9 1.9-2 1.9-2 6.9v1.7h23.3v-1.7q0-4.9-1.9-6.8-1.9-2-6.9-2z"/><path class="a" d="m23.7 107.6v2.8c4.3 2.3 14.9 9 14.9 15.2 0 6.8-5.7 18.7-5.7 26.3 0 30.5 11.7 32.8 28.7 32.8v-12.8c-14.4 0-16-0.6-16-20 0-5.4 5.7-16.5 5.7-26.3 0-7.6-9-13.9-13.5-16.6 6.4-4.1 13.5-10.5 13.5-17 0-9.5-5.7-21.8-5.7-26.3 0-19.3 1.6-20.1 16-20.1v-12.7c-17 0-28.7 2.3-28.7 32.8 0 7.6 5.7 19.5 5.7 26.3 0 6.1-11.2 13.7-14.9 15.6z"/><path class="a" d="m484.5 109.8v-2.9c-4.4-2.2-15.1-9.1-15.1-15.2 0-6.8 5.8-18.8 5.8-26.4 0-30.8-11.8-33-28.9-33v12.8c14.5 0 16.1 0.6 16.1 20.2 0 5.3-5.8 16.5-5.8 26.4 0 7.6 9.1 14 13.6 16.7-6.3 4.1-13.6 10.5-13.6 17.1 0 9.5 5.8 21.8 5.8 26.4 0 19.4-1.6 20.2-16.1 20.2v12.8c17.1 0 28.9-2.3 28.9-33 0-7.7-5.8-19.6-5.8-26.4 0-6.2 11.4-13.8 15.1-15.7z"/></svg>