<svg width="720" height="261" viewBox="0 0 720 261" fill="none" xmlns="http://www.w3.org/2000/svg">
<rect width="240" height="86.1118" fill="black" fill-opacity="0" transform="scale(3)"/>
<path d="M0 0.0125977V201.62L25.9411 201.7V105.692H88.4868V80.3152H25.9411V25.3771H107.398V0L0 0.0125977Z" fill="black"/>
<path d="M154.09 40.9379C163.434 40.9379 171.008 33.3634 171.008 24.0198C171.008 14.6762 163.434 7.10173 154.09 7.10173C144.747 7.10173 137.172 14.6762 137.172 24.0198C137.172 33.3634 144.747 40.9379 154.09 40.9379Z" fill="black"/>
<path d="M140.894 66.315V201.66H166.835V66.315H140.894Z" fill="black"/>
<path fill-rule="evenodd" clip-rule="evenodd" d="M263.05 62.3675C228.602 62.3675 204.562 91.5016 204.562 126.092C204.562 160.683 228.602 189.817 263.05 189.817C278.821 189.817 291.818 183.711 301.277 173.772V191.791C301.277 214.215 283.663 232.958 260.674 232.958C252.411 232.958 244.201 229.755 237.66 225.247L224.662 247.759C235.043 254.451 247.405 258.335 260.674 258.335C297.426 258.335 327.218 228.542 327.218 191.791V66.315H301.277V78.4129C291.818 68.4731 278.821 62.3675 263.05 62.3675ZM230.503 126.092C230.503 104.621 246.927 87.7446 265.87 87.7446C284.814 87.7446 301.237 104.621 301.237 126.092C301.237 147.563 284.814 164.44 265.87 164.44C246.927 164.44 230.503 147.563 230.503 126.092Z" fill="black"/>
<path d="M420.691 87.7446C405.352 87.7446 392.917 100.743 392.917 116.082V201.66H366.976V66.315H392.917V78.7134C400.518 68.8877 411.716 62.3675 426.33 62.3675C444.507 62.3675 458.458 71.3958 466.538 85.2127C475.523 71.8668 490.179 62.3675 507.819 62.3675C537.344 62.3675 555.721 86.1881 555.895 115.659C555.895 115.748 555.895 115.837 555.895 115.927V115.932V115.936L555.895 115.941C555.895 115.988 555.895 116.035 555.895 116.082V201.66H529.954V116.082C529.954 100.743 517.519 87.7446 502.18 87.7446C486.84 87.7446 474.406 100.743 474.406 116.082V201.66H448.465V116.082C448.465 100.743 436.03 87.7446 420.691 87.7446Z" fill="black"/>
<path fill-rule="evenodd" clip-rule="evenodd" d="M694.059 81.6576C682.518 69.741 666.713 62.3675 648.38 62.3675C609.788 62.3675 582.4 95.0424 582.4 133.987C582.4 172.932 609.788 205.607 648.38 205.607C666.713 205.607 682.518 198.234 694.059 186.317V201.66H720V66.315H694.059V81.6576ZM608.341 133.987C608.341 108.15 628.124 87.7446 651.2 87.7446C674.275 87.7446 694.059 108.15 694.059 133.987C694.059 159.825 674.275 180.23 651.2 180.23C628.124 180.23 608.341 159.825 608.341 133.987Z" fill="black"/>
</svg>
