<svg version="1.1" id="Layer_1" xmlns="http://www.w3.org/2000/svg" xmlns:xlink="http://www.w3.org/1999/xlink" x="0px" y="0px" viewBox="0 0 452 64" style="enable-background:new 0 0 452 64;" xml:space="preserve">
<style type="text/css">.st0{fill:var(--theme-color--ink)}</style>
<path class="st0" d="M10.36,44.67c-0.62-0.44-1.31-0.76-2.05-0.93c-0.81-0.2-1.64-0.3-2.47-0.3H0.63v18.33h2.24v-7.43h2.98
	c0.83,0,1.66-0.09,2.47-0.29c0.74-0.18,1.43-0.51,2.04-0.97c0.59-0.44,1.06-1.02,1.38-1.68c0.37-0.78,0.54-1.63,0.52-2.49v-0.1
	c0.02-0.85-0.16-1.69-0.52-2.45C11.42,45.69,10.95,45.11,10.36,44.67z M10.03,48.91c0.07,1.01-0.32,2-1.04,2.71
	c-0.85,0.68-1.92,1.01-3,0.94l-3.11-0.02v-7.29H6c1.05-0.06,2.08,0.23,2.95,0.81c0.72,0.54,1.07,1.46,1.07,2.76V48.91z M23.11,49.12
	c-0.46-0.37-0.99-0.63-1.56-0.77c-0.61-0.14-1.23-0.21-1.85-0.21c-0.63,0-1.27,0.07-1.88,0.21c-0.59,0.14-1.15,0.39-1.65,0.73
	c-0.49,0.34-0.91,0.78-1.21,1.3c-0.33,0.6-0.53,1.26-0.57,1.95h2.12c0.21-1.59,1.23-2.38,3.08-2.38c1.03,0,1.76,0.23,2.21,0.7
	c0.44,0.47,0.67,1.23,0.67,2.31v0.97h-1.93c-0.84,0-1.67,0.07-2.5,0.22c-0.75,0.12-1.47,0.36-2.15,0.7c-0.6,0.3-1.11,0.74-1.5,1.28
	c-0.39,0.57-0.59,1.24-0.57,1.93c-0.02,0.61,0.1,1.21,0.35,1.77c0.22,0.48,0.54,0.9,0.95,1.23c0.42,0.33,0.9,0.58,1.42,0.71
	c0.57,0.16,1.15,0.24,1.74,0.23c0.85,0.03,1.69-0.14,2.47-0.49c0.67-0.34,1.26-0.83,1.72-1.44v1.7h2.12v-8.85
	c0.03-0.8-0.11-1.59-0.41-2.33C23.94,50.03,23.57,49.53,23.11,49.12z M22.45,57.08c0.02,0.93-0.4,1.82-1.14,2.38
	c-0.38,0.29-0.8,0.5-1.26,0.63c-0.51,0.15-1.03,0.22-1.56,0.22c-0.94,0-1.6-0.2-1.99-0.6c-0.4-0.46-0.6-1.05-0.56-1.66
	c-0.01-0.44,0.1-0.87,0.34-1.24c0.25-0.35,0.59-0.62,0.98-0.81c0.47-0.22,0.97-0.37,1.48-0.45c0.61-0.1,1.24-0.14,1.86-0.14h1.85
	V57.08z M33.38,48.37c0.52-0.14,1.05-0.22,1.59-0.23v2c-0.61,0.03-1.22,0.11-1.82,0.26c-0.51,0.12-0.99,0.36-1.4,0.69
	c-0.4,0.35-0.71,0.79-0.89,1.3c-0.22,0.65-0.33,1.34-0.31,2.04v7.36h-2.13V48.37h2.13v2.41c0.2-0.37,0.43-0.72,0.7-1.04
	C31.82,49.08,32.55,48.6,33.38,48.37z M43.02,60.08c0.25-0.05,0.5-0.11,0.74-0.2v1.8c-0.24,0.09-0.49,0.16-0.74,0.2
	c-0.36,0.06-0.72,0.09-1.08,0.08c-1.23,0-2.14-0.32-2.73-0.97c-0.61-0.71-0.93-1.63-0.89-2.57v-8.25h-1.92v-1.8h1.92v-3.05h2.13
	v3.05h3.12v1.8h-3.12v8.04c0,1.3,0.55,1.95,1.67,1.95C42.43,60.16,42.73,60.13,43.02,60.08z M63.11,50.03
	c-0.59-0.6-1.3-1.08-2.08-1.4c-1.69-0.67-3.57-0.67-5.26,0c-0.79,0.32-1.5,0.8-2.08,1.41c-0.59,0.63-1.06,1.36-1.37,2.17
	c-0.35,0.88-0.53,1.82-0.52,2.76v0.21c-0.01,0.93,0.16,1.85,0.49,2.72c0.3,0.81,0.77,1.54,1.36,2.17c0.59,0.61,1.3,1.1,2.08,1.42
	c0.84,0.35,1.73,0.53,2.64,0.52c0.91,0.01,1.81-0.16,2.65-0.51c1.6-0.66,2.86-1.95,3.47-3.57c0.35-0.89,0.52-1.83,0.52-2.78v-0.2
	c0-0.95-0.17-1.89-0.52-2.77C64.17,51.38,63.7,50.65,63.11,50.03z M62.74,55.17c0.01,0.7-0.1,1.39-0.31,2.05
	c-0.18,0.58-0.48,1.12-0.87,1.59c-0.37,0.45-0.85,0.81-1.38,1.04c-0.57,0.24-1.19,0.36-1.81,0.36c-1.23,0.06-2.42-0.45-3.23-1.39
	c-0.82-1.03-1.23-2.33-1.17-3.64v-0.21c-0.01-0.71,0.09-1.41,0.31-2.08c0.18-0.58,0.48-1.12,0.87-1.59
	c0.37-0.45,0.85-0.81,1.38-1.04c0.58-0.25,1.2-0.37,1.82-0.36c0.62-0.01,1.24,0.11,1.81,0.36c0.53,0.24,1.01,0.6,1.38,1.04
	c0.4,0.47,0.7,1.02,0.89,1.61c0.21,0.67,0.31,1.38,0.31,2.08V55.17z M73.25,41.95c0.25,0.05,0.5,0.11,0.74,0.19v1.82
	c-0.22-0.09-0.45-0.16-0.68-0.2c-0.27-0.05-0.55-0.08-0.83-0.08c-0.57-0.05-1.14,0.18-1.5,0.64c-0.32,0.49-0.47,1.07-0.45,1.66v2.39
	h3.28v1.8h-3.28v11.61H68.4l0-11.61h-1.92v-1.8h1.92v-2.18c-0.07-1.15,0.28-2.28,1-3.18c0.67-0.75,1.67-1.13,3-1.13
	C72.68,41.88,72.97,41.9,73.25,41.95z M87.06,43.44l-6.04,18.32h3.9l1.25-4.08h6.64l1.28,4.09h4.33l-5.95-18.33H87.06z M87.08,54.75
	l2.44-7.92l2.41,7.92H87.08z M108.31,56.7h3.36c-0.03,0.76-0.21,1.5-0.52,2.19c-0.3,0.65-0.74,1.22-1.28,1.68
	c-0.58,0.5-1.25,0.87-1.97,1.11c-0.85,0.27-1.73,0.4-2.62,0.37c-0.93,0.01-1.86-0.15-2.73-0.45c-1.67-0.56-3-1.82-3.64-3.46
	c-0.36-0.93-0.54-1.92-0.52-2.91v-0.21c-0.02-1,0.16-1.98,0.52-2.91c0.66-1.67,2-2.98,3.69-3.59c0.86-0.32,1.77-0.48,2.69-0.47
	c0.76,0,1.51,0.09,2.24,0.27c0.7,0.17,1.37,0.47,1.96,0.88c0.58,0.43,1.06,0.98,1.41,1.62c0.4,0.75,0.63,1.58,0.69,2.43h-3.51
	c-0.06-0.66-0.37-1.27-0.86-1.71c-0.53-0.4-1.19-0.61-1.86-0.57c-0.9-0.03-1.76,0.35-2.33,1.04c-0.63,0.85-0.94,1.9-0.87,2.95v0.2
	c0,1.35,0.29,2.37,0.86,3.05c0.6,0.7,1.5,1.09,2.42,1.04c0.7,0.02,1.38-0.21,1.94-0.64C107.94,58.15,108.28,57.45,108.31,56.7z
	 M122.2,56.68h3.36c-0.03,0.76-0.21,1.5-0.52,2.19c-0.3,0.65-0.74,1.22-1.29,1.68c-0.58,0.5-1.25,0.88-1.97,1.11
	c-0.85,0.28-1.74,0.41-2.63,0.39c-0.93,0.01-1.85-0.15-2.73-0.45c-1.67-0.56-3-1.82-3.64-3.46c-0.36-0.93-0.54-1.92-0.52-2.91v-0.21
	c-0.02-0.99,0.16-1.98,0.52-2.91c0.66-1.67,2.01-2.98,3.7-3.59c0.86-0.32,1.77-0.48,2.69-0.47c0.76-0.01,1.52,0.08,2.26,0.26
	c0.7,0.17,1.37,0.47,1.96,0.88c0.58,0.43,1.06,0.98,1.41,1.62c0.4,0.75,0.64,1.58,0.69,2.43h-3.51c-0.07-0.66-0.38-1.27-0.86-1.71
	c-0.53-0.4-1.19-0.61-1.86-0.57c-0.9-0.03-1.76,0.35-2.33,1.04c-0.63,0.85-0.94,1.9-0.87,2.95v0.2c0,1.35,0.29,2.37,0.86,3.05
	c0.6,0.7,1.5,1.09,2.42,1.04c0.7,0.02,1.38-0.21,1.94-0.64C121.83,58.13,122.17,57.43,122.2,56.68z M137.56,49.66
	c-0.6-0.55-1.31-0.96-2.08-1.22c-0.8-0.27-1.64-0.4-2.49-0.4c-0.93,0-1.85,0.18-2.72,0.52c-0.81,0.32-1.55,0.79-2.18,1.4
	c-0.64,0.63-1.14,1.38-1.47,2.21c-0.36,0.91-0.54,1.89-0.52,2.87v0.21c-0.02,0.98,0.16,1.96,0.52,2.87
	c0.33,0.81,0.83,1.54,1.47,2.13c0.63,0.61,1.38,1.07,2.21,1.36c0.9,0.32,1.84,0.47,2.8,0.46c1.56,0.08,3.1-0.33,4.42-1.17
	c1.11-0.78,1.83-2,1.99-3.35h-3.51c-0.1,0.54-0.4,1.02-0.83,1.36c-1.39,0.81-3.14,0.65-4.36-0.4c-0.62-0.73-0.95-1.65-0.94-2.6h9.65
	v-1.04c0.03-1.06-0.15-2.11-0.52-3.09C138.67,50.97,138.18,50.25,137.56,49.66z M129.89,53.62c0.08-0.83,0.44-1.61,1.01-2.22
	c0.56-0.53,1.31-0.81,2.08-0.78c0.77-0.05,1.52,0.22,2.08,0.73c0.55,0.63,0.85,1.43,0.84,2.26H129.89z M153.21,50.92
	c0.24,0.75,0.35,1.53,0.33,2.32v8.53h-3.72v-8c0.06-0.72-0.14-1.45-0.56-2.04c-0.47-0.48-1.13-0.72-1.8-0.66
	c-1.45-0.1-2.71,1-2.8,2.45c-0.01,0.16-0.01,0.33,0.01,0.49v7.74h-3.72l0.03-13.41h3.72v2.13c0.36-0.7,0.9-1.29,1.56-1.72
	c0.83-0.51,1.8-0.76,2.77-0.72c0.62-0.01,1.23,0.1,1.82,0.31c0.54,0.2,1.03,0.51,1.44,0.92C152.71,49.76,153.03,50.32,153.21,50.92z
	 M162.28,59c0.23-0.04,0.45-0.1,0.66-0.19v2.87c-0.31,0.1-0.63,0.18-0.95,0.24c-0.43,0.08-0.87,0.12-1.31,0.11
	c-1.42,0-2.49-0.35-3.23-1.04c-0.74-0.69-1.1-1.75-1.1-3.17v-6.82h-1.72v-2.64h1.72v-2.9h3.69v2.9h2.82v2.64h-2.82v6.46
	c-0.03,0.43,0.1,0.86,0.37,1.19c0.3,0.28,0.7,0.43,1.11,0.4C161.77,59.06,162.03,59.04,162.28,59z M173.18,48.37h3.7v13.41h-3.7
	v-2.08c-0.36,0.7-0.9,1.29-1.56,1.7c-0.81,0.48-1.75,0.71-2.69,0.67c-0.61,0.01-1.23-0.09-1.81-0.3c-0.55-0.19-1.04-0.5-1.45-0.91
	c-0.43-0.44-0.76-0.98-0.96-1.56c-0.25-0.73-0.36-1.5-0.35-2.27v-8.65h3.7v8.13c-0.05,0.72,0.15,1.44,0.59,2.01
	c0.45,0.48,1.09,0.73,1.74,0.68c1.46,0.08,2.72-1.03,2.8-2.5c0.01-0.15,0-0.3-0.01-0.45V48.37z M184.59,48.87
	c0.8-0.49,1.73-0.74,2.67-0.71v3.46c-1.12-0.08-2.24,0.18-3.21,0.74c-0.75,0.52-1.12,1.41-1.12,2.69v6.72h-3.72v-13.4h3.72v2.55
	C183.28,50.1,183.86,49.39,184.59,48.87z M201.04,54.86c0.03-1.06-0.15-2.11-0.52-3.09c-0.32-0.8-0.81-1.52-1.44-2.11
	c-0.6-0.55-1.31-0.96-2.08-1.22c-0.8-0.27-1.64-0.4-2.48-0.4c-0.93,0-1.85,0.17-2.72,0.52c-0.81,0.32-1.55,0.79-2.18,1.4
	c-0.64,0.63-1.14,1.38-1.47,2.21c-0.36,0.91-0.54,1.89-0.52,2.87v0.21c-0.02,0.98,0.16,1.96,0.52,2.87
	c0.68,1.63,2.02,2.89,3.68,3.49c0.9,0.32,1.84,0.47,2.79,0.46c1.56,0.08,3.11-0.33,4.43-1.17c1.11-0.78,1.83-2,1.98-3.35h-3.51
	c-0.11,0.54-0.4,1.02-0.83,1.36c-1.39,0.81-3.14,0.65-4.36-0.4c-0.62-0.73-0.95-1.65-0.94-2.6h9.65V54.86z M191.41,53.62
	c0.08-0.83,0.43-1.61,1.01-2.22c1.19-1.04,2.95-1.06,4.17-0.05c0.55,0.63,0.85,1.43,0.84,2.26H191.41z M414.57,2.17l-9.55,13.27
	l9.55,13.27h-6.95l-9.13-13.27l9.13-13.27H414.57z M389.82,2.17h6.02v26.54h-6.02V2.17z M366.84,18.58l7.59,10.14h-7l-9.17-13.27
	h3.4c2.88,0,4.67-1.75,4.67-4.21v-0.08c0-2.56-1.74-4.03-4.78-4.03h-5.92v21.59h-5.96V2.17h12.38c3.23,0,5.89,0.92,7.62,2.67
	c1.51,1.62,2.32,3.79,2.23,6.01v0.08C371.89,14.41,369.72,17.08,366.84,18.58z M0.24,1.93h5.89v26.79H0.24V1.93z M59.22,1.93h20.02
	v5.6H64.73v5.08h12.78v5.6H64.73v10.53h-5.52V1.93z M96.72,1.93h5.89v26.79h-5.89V1.93z M155.59,1.93h5.89v26.79h-5.89V1.93z
	 M179.13,1.93h21.82v5.64h-7.96v21.15h-5.89V7.56h-7.96V1.93z M235.08,1.93h6.7l-10.29,16.11v10.68h-5.89V18.15l-10.3-16.22h6.89
	l6.39,10.75L235.08,1.93z M289,2.25h5.62l-8.98,26.47h-4.76l-6.23-18.06l-6.23,18.06h-4.76l-8.97-26.47h5.77l5.67,18.53l0.06,0.2
	l6.2-18.8h4.68l6.14,18.61l0.07,0.19L289,2.25z M319.46,1.39c-8.01,0-14.29,6.09-14.29,13.86v0.08c0,7.86,6.11,13.79,14.22,13.79
	c8.01,0,14.29-6.09,14.29-13.87v-0.08C333.67,7.31,327.56,1.39,319.46,1.39z M327.9,15.33c0,5.02-3.63,8.78-8.44,8.78
	s-8.52-3.88-8.52-8.83v-0.1c0-5.02,3.63-8.78,8.44-8.78s8.51,3.88,8.51,8.83V15.33z M21.97,1.26l22.79,20.2v7.93L21.97,9.19V1.26z
	 M117.71,1.26l22.79,20.2v7.93l-22.79-20.2V1.26z M450.66,21.06v0.08c0,5.11-3.74,7.97-9.77,7.97l-0.84,0.01
	c-2.98-0.04-5.94-0.52-8.78-1.42v-4.95c2.8,0.88,5.7,1.36,8.63,1.42h1.1c2.54,0,4.26-1.18,4.26-2.9v-0.08
	c0-1.74-1.13-2.71-5.52-3.85c-5.09-1.56-8.76-3.18-9.1-8.15V9.13c0-4.78,3.71-7.67,9.22-7.74c2.91,0.08,5.79,0.55,8.57,1.42v4.92
	c-2.82-0.89-5.75-1.37-8.71-1.42c-2.14,0.06-3.52,1.04-3.52,2.57v0.08c0,1.96,1.6,2.79,5.99,3.96
	C447.14,14.46,450.66,16.23,450.66,21.06z"></path>
</svg>