<svg xmlns="http://www.w3.org/2000/svg" viewBox="0 0 126 32">
<path d="M22.297 29.006c0 1.342 1.135 2.374 2.581 2.374h3.716V.619h-6.297v28.387zM42.013 26.632c-3.613 0-5.884-2.684-5.884-5.987s2.271-5.987 5.884-5.987c3.51 0 5.884 2.581 5.884 5.987s-2.374 5.987-5.884 5.987zm5.677-14.348c-1.445-1.755-3.613-2.994-6.813-2.994-6.194 0-10.942 4.852-10.942 11.355S34.683 32 40.877 32c3.097 0 5.265-1.239 6.813-2.89 0 1.342 1.135 2.374 2.477 2.374h3.51V9.91H47.69v2.374zM55.845 29.006c0 1.342 1.135 2.374 2.477 2.374h3.613V.619h-5.987v28.387zM75.871 26.632c-3.303 0-5.781-2.477-5.781-5.987s2.477-5.987 5.781-5.987c3.303 0 5.884 2.477 5.884 5.987s-2.581 5.987-5.884 5.987zm0-17.342C69.058 9.29 64 14.142 64 20.645S69.058 32 75.871 32c6.813 0 11.871-4.852 11.871-11.355S82.684 9.29 75.871 9.29zM117.161 9.29c-2.89 0-5.884 1.032-7.535 3.819-1.445-2.374-4.129-3.819-7.329-3.819-2.581 0-4.955.826-6.606 3.2V9.909h-5.884v19.716c0 1.342 1.135 2.374 2.477 2.374h3.613V19.922c0-3.303 2.168-4.955 4.748-4.955 2.787 0 4.335 1.755 4.335 4.955v9.703c0 1.342 1.135 2.374 2.477 2.374h3.613V19.922c0-3.303 2.168-4.955 4.748-4.955 2.684 0 4.335 1.755 4.335 4.955v9.703c0 1.342 1.135 2.374 2.477 2.374h3.51V17.96c-.206-5.161-3.716-8.671-8.981-8.671zM12.903 17.858l-2.684-.31c-2.065-.31-3.303-.723-3.303-1.961s1.032-1.961 3.406-1.961c2.271 0 4.439.619 6.194 1.342 1.239.516 2.581-.103 3.097-1.239l1.135-2.477c-2.994-1.445-6.4-2.477-10.426-2.581C5.057 8.568.619 10.942.619 15.587c-.103 3.613 1.548 6.09 8.155 7.019l1.342.206c2.89.413 5.058.516 5.058 2.065 0 1.652-1.755 2.168-5.058 2.065-3.406-.103-6.4-1.652-7.948-2.477L.103 29.11c3.097 1.858 6.916 2.684 9.91 2.787 7.535.103 11.355-2.477 11.355-7.123 0-4.026-3.613-6.297-8.465-6.916z" />
</svg>